<svg xmlns="http://www.w3.org/2000/svg" xmlns:xlink="http://www.w3.org/1999/xlink" width="79.024" height="67" viewBox="0 0 79.024 67">
  <defs>
    <linearGradient id="linear-gradient" y1="0.944" x2="1" y2="0.056" gradientUnits="objectBoundingBox">
      <stop offset="0" stop-color="#42b012"/>
      <stop offset="1" stop-color="#4bc316"/>
    </linearGradient>
  </defs>
  <g id="coin_2_" data-name="coin (2)" transform="translate(-425.099 -955)">
    <g id="coin_2_2" data-name="coin (2)" transform="translate(425 955)">
      <path id="Shape_1" data-name="Shape 1" d="M.1,33.508A33.53,33.53,0,1,1,65.807,42.9q-2.392,2.779-4.8,5.558c-.244.26-.472.536-.7.8-.309-.228-.6-.471-.911-.7-1.546-1.2-3.173-2.47-4.8-3.673a4.707,4.707,0,0,0-6.753.6c-.244.26-.439.488-.618.7a4.2,4.2,0,0,0-.358,5.086l.13.2c.391.617.814,1.268,1.3,1.9,1.774,2.324,3.6,4.664,5.386,6.988A33.543,33.543,0,0,1,.1,33.508ZM22.88,43.47c-.342,1.089-.635,2.194-.944,3.3-.407,1.479-.26,1.836,1.155,2.519a20.41,20.41,0,0,0,5.7,1.625c1.546.244,1.595.309,1.611,1.9,0,.715,0,1.446.016,2.161A1.3,1.3,0,0,0,31.8,56.437c1.074.033,2.148.033,3.206,0a1.233,1.233,0,0,0,1.318-1.381c0-.991.049-1.983,0-2.974a1.557,1.557,0,0,1,1.351-1.788,10.783,10.783,0,0,0,5.6-3.575C47.322,41.8,45.76,34.6,39.983,31.444a54.393,54.393,0,0,0-5.614-2.535,12.979,12.979,0,0,1-3.076-1.723,2.675,2.675,0,0,1,.667-4.761,5.366,5.366,0,0,1,1.888-.39,14.082,14.082,0,0,1,7.095,1.4c1.123.536,1.5.374,1.871-.8.391-1.235.732-2.486,1.09-3.721a1.3,1.3,0,0,0-.846-1.739,17.759,17.759,0,0,0-4.475-1.332c-2.034-.309-2.018-.325-2.034-2.356-.016-2.876-.016-2.876-2.9-2.876-.407,0-.83-.016-1.253,0-1.351.033-1.578.26-1.611,1.625v1.82c-.016,1.8-.016,1.771-1.741,2.405-4.182,1.511-6.753,4.355-7.03,8.905-.244,4.03,1.855,6.744,5.175,8.726a55.964,55.964,0,0,0,6.46,2.893,10.094,10.094,0,0,1,2.359,1.381,3.214,3.214,0,0,1-.765,5.639,7.882,7.882,0,0,1-4.149.536,18.308,18.308,0,0,1-6.314-1.885,2.37,2.37,0,0,0-1-.349C23.355,42.308,23.127,42.668,22.88,43.47ZM59.64,63.116q-4.491-5.8-8.95-11.586c-.456-.6-.862-1.251-1.269-1.885a1.207,1.207,0,0,1,.13-1.544,6.464,6.464,0,0,1,.439-.5,2.2,2.2,0,0,1,1.5-.861,2.322,2.322,0,0,1,1.318.569c2.246,1.674,4.442,3.413,6.672,5.135.407.325.814.634,1.253.975.879-1.008,1.725-1.983,2.571-2.958q5.663-6.557,11.326-13.1c.749-.861,1.237-1.284,1.79-1.284a3.248,3.248,0,0,1,1.806.959c1.09.894,1.172,1.284.342,2.47q-8.2,11.749-16.419,23.482a1.642,1.642,0,0,1-1.3.845A1.56,1.56,0,0,1,59.64,63.116Z"/>
    </g>
    <path id="Gradient_Overlay" data-name="Gradient Overlay" d="M425.1,988.508a33.53,33.53,0,1,1,65.709,9.393q-2.392,2.778-4.8,5.557c-.244.26-.473.536-.7.8-.309-.228-.6-.472-.911-.7-1.546-1.2-3.173-2.47-4.8-3.673a4.707,4.707,0,0,0-6.753.6c-.245.26-.44.487-.618.7a4.2,4.2,0,0,0-.358,5.086l.13.2c.391.617.814,1.268,1.3,1.9,1.774,2.324,3.6,4.664,5.386,6.988A33.543,33.543,0,0,1,425.1,988.508Zm22.782,9.962c-.342,1.088-.635,2.193-.944,3.3-.407,1.479-.26,1.836,1.156,2.519a20.4,20.4,0,0,0,5.7,1.625c1.546.244,1.595.309,1.611,1.9,0,.715,0,1.446.016,2.161a1.3,1.3,0,0,0,1.383,1.463c1.074.032,2.148.032,3.206,0a1.233,1.233,0,0,0,1.318-1.382c0-.991.049-1.982,0-2.974a1.557,1.557,0,0,1,1.351-1.787,10.783,10.783,0,0,0,5.6-3.575c4.052-4.924,2.489-12.123-3.287-15.276a54.383,54.383,0,0,0-5.614-2.534,12.99,12.99,0,0,1-3.075-1.723,2.675,2.675,0,0,1,.667-4.762,5.36,5.36,0,0,1,1.887-.39,14.072,14.072,0,0,1,7.095,1.4c1.123.536,1.5.373,1.872-.8.391-1.235.732-2.487,1.09-3.721a1.3,1.3,0,0,0-.846-1.739,17.74,17.74,0,0,0-4.475-1.332c-2.034-.309-2.018-.326-2.034-2.357-.017-2.875-.017-2.875-2.9-2.875-.407,0-.83-.016-1.253,0-1.351.032-1.579.26-1.611,1.625v1.82c-.016,1.8-.016,1.772-1.742,2.406-4.181,1.511-6.753,4.355-7.029,8.9-.245,4.03,1.855,6.745,5.174,8.726a55.843,55.843,0,0,0,6.46,2.893,10.127,10.127,0,0,1,2.36,1.382,3.214,3.214,0,0,1-.765,5.638,7.875,7.875,0,0,1-4.149.536,18.324,18.324,0,0,1-6.314-1.885,2.371,2.371,0,0,0-1-.349C448.355,997.308,448.127,997.668,447.881,998.47Zm36.76,19.646q-4.491-5.8-8.95-11.587c-.456-.6-.863-1.251-1.27-1.885a1.208,1.208,0,0,1,.13-1.544,6.358,6.358,0,0,1,.439-.5,2.2,2.2,0,0,1,1.5-.861,2.322,2.322,0,0,1,1.318.569c2.246,1.674,4.442,3.413,6.672,5.135.407.325.814.634,1.253.975.879-1.008,1.725-1.983,2.571-2.957q5.663-6.557,11.326-13.1c.749-.861,1.237-1.284,1.79-1.284a3.247,3.247,0,0,1,1.806.959c1.09.894,1.172,1.283.342,2.47q-8.2,11.749-16.42,23.482a1.642,1.642,0,0,1-1.3.845A1.56,1.56,0,0,1,484.64,1018.116Z" fill="url(#linear-gradient)"/>
  </g>
</svg>
