<svg xmlns="http://www.w3.org/2000/svg" xmlns:xlink="http://www.w3.org/1999/xlink" width="59" height="69" viewBox="0 0 59 69">
  <defs>
    <linearGradient id="linear-gradient" y1="0.822" x2="1" y2="0.178" gradientUnits="objectBoundingBox">
      <stop offset="0" stop-color="#42b012"/>
      <stop offset="1" stop-color="#4bc316"/>
    </linearGradient>
  </defs>
  <g id="piggy-bank_1_" data-name="piggy-bank (1)" transform="translate(-1426 -954)">
    <g id="piggy-bank_1_2" data-name="piggy-bank (1)" transform="translate(1426 954)">
      <path id="Shape_1" data-name="Shape 1" d="M33.647,69a1.493,1.493,0,0,1-1.492-1.495V65.363a28.89,28.89,0,0,1-3.171.172,31.138,31.138,0,0,1-4.032-.273v2.243A1.492,1.492,0,0,1,23.459,69H14.391A1.5,1.5,0,0,1,12.9,67.606v-.776A12.735,12.735,0,0,0,9.484,58.65a24.07,24.07,0,0,1-4.4-6.67,20.771,20.771,0,0,1-1.722-4.586.251.251,0,0,1-.014-.072,20.348,20.348,0,0,1,1.306-13.34,20.727,20.727,0,0,0,12.684,4.312,20.9,20.9,0,0,0,20.288-16,6.5,6.5,0,0,1,2.037-3.364,12.15,12.15,0,0,1,6.672-2.8,1.649,1.649,0,0,1,1.593,2.516,8.182,8.182,0,0,0-1.22,6.6,1.941,1.941,0,0,1,.057.4A22.707,22.707,0,0,1,54.193,36.2h2.023A2.8,2.8,0,0,1,59,38.956v6.8a2.758,2.758,0,0,1-2.755,2.76H54.337a22.486,22.486,0,0,1-6.629,10.149c-.029.029-.057.043-.086.072l-.3.259a8.974,8.974,0,0,0-3.085,6.268v2.243A1.492,1.492,0,0,1,42.743,69Zm8.968-34.572a2.253,2.253,0,1,0,2.253-2.257A2.249,2.249,0,0,0,42.614,34.428ZM0,17.365A17.333,17.333,0,1,1,17.333,34.744,17.352,17.352,0,0,1,0,17.365Zm11.766,5.161c-.172.575-.33,1.136-.488,1.711-.2.762-.129.949.574,1.279a10.012,10.012,0,0,0,2.941.848c.8.129.818.173.832.992.014.374.014.748.014,1.121a.67.67,0,0,0,.717.762c.545.014,1.1.014,1.65,0a.636.636,0,0,0,.689-.719c0-.517.029-1.021,0-1.538a.81.81,0,0,1,.7-.92,5.578,5.578,0,0,0,2.9-1.854,5.229,5.229,0,0,0-1.679-7.935,29.289,29.289,0,0,0-2.913-1.322,5.973,5.973,0,0,1-1.593-.891,1.392,1.392,0,0,1,.344-2.473,2.521,2.521,0,0,1,.976-.2,7.365,7.365,0,0,1,3.673.733c.574.273.76.187.961-.417.215-.632.387-1.279.574-1.926a.69.69,0,0,0-.445-.906,9.3,9.3,0,0,0-2.31-.69c-1.047-.158-1.047-.173-1.047-1.222,0-1.495,0-1.495-1.492-1.495H16.7c-.689.029-.818.144-.832.848v.949c-.014.934-.014.92-.9,1.251a4.974,4.974,0,0,0-3.63,4.614A4.737,4.737,0,0,0,14,17.652a28.917,28.917,0,0,0,3.343,1.5,5.235,5.235,0,0,1,1.22.719,1.675,1.675,0,0,1-.4,2.933,4.026,4.026,0,0,1-2.138.287,9.675,9.675,0,0,1-3.271-.977,1.241,1.241,0,0,0-.522-.181C12.012,21.927,11.892,22.11,11.765,22.526Z"/>
    </g>
    <path id="Gradient_Overlay" data-name="Gradient Overlay" d="M1459.647,1023a1.493,1.493,0,0,1-1.493-1.495v-2.142a29.055,29.055,0,0,1-3.171.172,31.092,31.092,0,0,1-4.032-.273v2.243a1.492,1.492,0,0,1-1.492,1.495h-9.068a1.5,1.5,0,0,1-1.492-1.395v-.776a12.734,12.734,0,0,0-3.415-8.179,24.074,24.074,0,0,1-4.4-6.67,20.769,20.769,0,0,1-1.722-4.586.249.249,0,0,1-.014-.071,20.342,20.342,0,0,1,1.306-13.341,20.847,20.847,0,0,0,32.972-11.687,6.493,6.493,0,0,1,2.037-3.364,12.157,12.157,0,0,1,6.673-2.8,1.649,1.649,0,0,1,1.592,2.516,8.185,8.185,0,0,0-1.219,6.6,1.945,1.945,0,0,1,.058.4,22.706,22.706,0,0,1,7.432,10.552h2.023a2.8,2.8,0,0,1,2.784,2.76v6.8a2.758,2.758,0,0,1-2.755,2.759h-1.908a22.482,22.482,0,0,1-6.629,10.149c-.029.029-.058.043-.086.071l-.3.259a8.973,8.973,0,0,0-3.085,6.268v2.243a1.492,1.492,0,0,1-1.492,1.495Zm8.968-34.573a2.253,2.253,0,1,0,2.253-2.256A2.25,2.25,0,0,0,1468.615,988.428ZM1426,971.365a17.333,17.333,0,1,1,17.333,17.38A17.352,17.352,0,0,1,1426,971.365Zm11.766,5.161c-.172.575-.329,1.136-.488,1.711-.2.762-.129.949.574,1.28a10.018,10.018,0,0,0,2.941.848c.8.13.818.173.833.992.014.373.014.748.014,1.121a.669.669,0,0,0,.717.761c.545.014,1.1.014,1.65,0a.635.635,0,0,0,.688-.718c0-.518.029-1.021,0-1.538a.811.811,0,0,1,.7-.92,5.584,5.584,0,0,0,2.9-1.855,5.229,5.229,0,0,0-1.678-7.935,29.33,29.33,0,0,0-2.913-1.322,5.993,5.993,0,0,1-1.592-.891,1.392,1.392,0,0,1,.344-2.472,2.522,2.522,0,0,1,.977-.2,7.363,7.363,0,0,1,3.673.734c.573.273.76.186.961-.418.215-.632.387-1.279.574-1.926a.691.691,0,0,0-.446-.905,9.278,9.278,0,0,0-2.309-.69c-1.048-.158-1.048-.173-1.048-1.222,0-1.495,0-1.495-1.492-1.495h-.646c-.688.029-.817.144-.832.849v.949c-.014.934-.014.92-.9,1.25a4.975,4.975,0,0,0-3.63,4.615,4.736,4.736,0,0,0,2.669,4.528,28.883,28.883,0,0,0,3.344,1.495,5.242,5.242,0,0,1,1.219.719,1.674,1.674,0,0,1-.4,2.932,4.032,4.032,0,0,1-2.138.287,9.666,9.666,0,0,1-3.271-.977,1.249,1.249,0,0,0-.521-.181C1438.012,975.928,1437.891,976.11,1437.765,976.525Z" fill="url(#linear-gradient)"/>
  </g>
</svg>
