<svg xmlns="http://www.w3.org/2000/svg" xmlns:xlink="http://www.w3.org/1999/xlink" width="66.002" height="66.002" viewBox="0 0 66.002 66.002">
  <defs>
    <linearGradient id="linear-gradient" y1="0.877" x2="1" y2="0.123" gradientUnits="objectBoundingBox">
      <stop offset="0" stop-color="#42b012"/>
      <stop offset="1" stop-color="#4bc316"/>
    </linearGradient>
  </defs>
  <g id="clock-circular-outline" transform="translate(-1091.999 -959.999)">
    <g id="clock-circular-outline-2" data-name="clock-circular-outline" transform="translate(1092 960)">
      <path id="Forma_1" data-name="Forma 1" d="M0,33A33,33,0,1,1,33,66,33.038,33.038,0,0,1,0,33ZM7.02,33A25.98,25.98,0,1,0,33,7.021,26.009,26.009,0,0,0,7.02,33Zm25.631,4.415A2.717,2.717,0,0,1,29.934,34.7V14.149a2.717,2.717,0,0,1,5.435,0V31.981H50.2a2.717,2.717,0,1,1,0,5.434Z"/>
    </g>
    <path id="Gradient_Overlay" data-name="Gradient Overlay" d="M1092,993a33,33,0,1,1,33,33A33.038,33.038,0,0,1,1092,993Zm7.022,0A25.979,25.979,0,1,0,1125,967.021,26.009,26.009,0,0,0,1099.021,993Zm25.631,4.415a2.717,2.717,0,0,1-2.718-2.717V974.149a2.718,2.718,0,0,1,5.435,0v17.832H1142.2a2.717,2.717,0,1,1,0,5.434Z" fill="url(#linear-gradient)"/>
  </g>
</svg>
