<svg xmlns="http://www.w3.org/2000/svg" xmlns:xlink="http://www.w3.org/1999/xlink" width="66.006" height="62" viewBox="0 0 66.006 62">
  <defs>
    <linearGradient id="linear-gradient" y1="0.901" x2="1" y2="0.099" gradientUnits="objectBoundingBox">
      <stop offset="0" stop-color="#42b012"/>
      <stop offset="1" stop-color="#4bc316"/>
    </linearGradient>
  </defs>
  <g id="open-folder-with-document_1_" data-name="open-folder-with-document (1)" transform="translate(-761.674 -960)">
    <g id="open-folder-with-document_1_2" data-name="open-folder-with-document (1)" transform="translate(761 960)">
      <path id="Forma_1" data-name="Forma 1" d="M66.275,37.661,54.611,59.732a4.613,4.613,0,0,1-3.438,2.258L4.4,62A3.723,3.723,0,0,1,.674,58.276L.682,21.959A3.723,3.723,0,0,1,4.4,18.236l3.42,0v3.172H5.533a1.688,1.688,0,0,0-1.689,1.689l0,34.045a1.69,1.69,0,0,0,1.69,1.689H7.88l11.054-22.36a3.746,3.746,0,0,1,3.052-2.258H49.058l.009-9a3.466,3.466,0,0,1,3.163,3.439v5.559H64.646C66.113,34.226,67.347,35.675,66.275,37.661Zm-56.3,9.912c-.1-11.129,0-44.519,0-44.519A3.057,3.057,0,0,1,13.031,0H37.484a1.4,1.4,0,0,1,1.029.452L46.419,9.04a1.4,1.4,0,0,1,.37.948V32.236H44.224V11.909a.638.638,0,0,0-.638-.637H37.535a1.284,1.284,0,0,1-1.283-1.282V3.2a.638.638,0,0,0-.638-.637H13.033a.49.49,0,0,0-.489.489V44.774l-1.963,3.97S9.988,48.7,9.978,47.573ZM38.819,8.709h3.809l-3.809-4.14Zm1.389,5.175H16.575a1.578,1.578,0,0,0,0,3.156H40.208a1.578,1.578,0,1,0,0-3.156Zm1.579,10.767a1.58,1.58,0,0,0-1.579-1.577H16.575a1.577,1.577,0,1,0,0,3.153H40.208A1.58,1.58,0,0,0,41.787,24.651ZM15,33.9a1.578,1.578,0,0,0,1.577,1.576h.567a4.73,4.73,0,0,1,3.47-3.153H16.575A1.579,1.579,0,0,0,15,33.9Z"/>
    </g>
    <path id="Gradient_Overlay" data-name="Gradient Overlay" d="M762.764,1020.91a3.724,3.724,0,0,1-1.09-2.633l.007-36.318a3.723,3.723,0,0,1,3.72-3.722l3.42,0v3.172h-2.289a1.69,1.69,0,0,0-1.689,1.689l0,34.045a1.689,1.689,0,0,0,1.689,1.689h2.344l11.054-22.36a3.746,3.746,0,0,1,3.053-2.258h27.072l.008-9a3.466,3.466,0,0,1,3.164,3.439v5.559h12.416c1.466.015,2.7,1.464,1.628,3.45l-11.664,22.072a4.614,4.614,0,0,1-3.438,2.258L765.4,1022A3.726,3.726,0,0,1,762.764,1020.91Zm8.213-13.337c-.1-11.128,0-44.518,0-44.518A3.056,3.056,0,0,1,774.031,960h24.453a1.4,1.4,0,0,1,1.03.452l7.906,8.588a1.4,1.4,0,0,1,.37.949v22.248h-2.564V971.909a.639.639,0,0,0-.638-.637h-6.052a1.284,1.284,0,0,1-1.283-1.282V963.2a.638.638,0,0,0-.637-.638H774.032a.49.49,0,0,0-.489.49v41.72l-1.963,3.97S770.988,1008.7,770.978,1007.573Zm28.841-38.864h3.809l-3.809-4.14Zm-22.244,26.77a1.577,1.577,0,1,1,0-3.154h4.036a4.732,4.732,0,0,0-3.47,3.154Zm0-9.251a1.577,1.577,0,1,1,0-3.154h23.633a1.577,1.577,0,1,1,0,3.154Zm0-9.187a1.578,1.578,0,0,1,0-3.156h23.633a1.578,1.578,0,1,1,0,3.156Z" fill="url(#linear-gradient)"/>
  </g>
</svg>
